<?xml version="1.0" standalone="no"?><!DOCTYPE svg PUBLIC "-//W3C//DTD SVG 1.1//EN" "http://www.w3.org/Graphics/SVG/1.1/DTD/svg11.dtd"><svg class="icon" width="200px" height="200.00px" viewBox="0 0 1024 1024" version="1.1" xmlns="http://www.w3.org/2000/svg"><path d="M868.78260513 350.93851167c-4.19752479 316.58112364-206.64378348 533.42289687-508.84923077 547.04005471-124.62575954 5.70639316-214.91280228-34.551102-293.48715213-84.46745527 92.10982108 14.70125585 206.32520569-22.11723305 267.41045242-74.40833277-90.28704274-8.78247749-143.74276011-54.7393641-168.7552-128.69725356 26.08953618 4.51026781 53.57474644 3.31414245 78.36079771-1.93480569-81.47305755-27.27282508-139.65259487-77.62795213-142.6586621-183.14254588 22.8629151 10.40920798 46.6967339 20.19409687 78.36079772 22.12306782-60.97321937-34.68180056-106.05956011-161.46291966-54.42078633-245.29788718 90.49359316 99.18854928 199.34683533 180.12947692 378.08647293 191.07898346-44.87512251-191.83050029 209.33127293-295.85489687 315.7222473-166.92541994 44.97431338-8.70079088 81.58158405-25.7639567 116.79551453-44.33599088-14.49353846 44.54837607-42.40585299 75.68030997-76.43065983 100.58539031 37.3506188-5.04239772 70.41152364-14.16912593 98.65525243-28.12469971-17.51944388 36.39255157-55.82929687 69.02751909-88.78984388 96.50689458z" fill="#2C2C2C" /></svg>