<svg xmlns="http://www.w3.org/2000/svg" id="_图层_1" viewBox="0 0 198.47 198.53"><defs><style>.cls-1{fill:#f2f2f2}.cls-2{fill:#f9f9f9}.cls-3{fill:#eee}.cls-4{fill:#ebebeb}.cls-5{fill:#eaeaea}.cls-6{fill:#e6e6e6}.cls-7{fill:#f5f5f5}.cls-8{fill:#fcfcfc}.cls-9{fill:#ededed}.cls-10{fill:#fff}.cls-11{fill:#fafafa}.cls-12{fill:#e5e5e5}.cls-13{fill:#e2e2e2}.cls-14{fill:#e4e4e4}.cls-15{fill:#fdfdfd}.cls-16{fill:#686868}.cls-17{fill:#969696}.cls-18{fill:#8b8b8b}.cls-19{fill:#b8b8b8}.cls-20{fill:#c2c2c2}.cls-21{fill:#737373}.cls-22{fill:#8d8d8d}.cls-23{fill:#cdcdcd}.cls-24{fill:#acacac}.cls-25{fill:#b1b1b1}.cls-26{fill:#bcbcbc}.cls-27{fill:#a5a5a5}.cls-28{fill:#aeaeae}.cls-29{fill:#bfbfbf}.cls-30{fill:#bdbdbd}.cls-31{fill:#d0d0d0}.cls-32{fill:#ddd}.cls-33{fill:#c3c3c3}.cls-34{fill:#c4c4c4}.cls-35{fill:#dcdcdc}.cls-36{fill:#dbdbdb}.cls-37{fill:#d7d7d7}.cls-38{fill:#c6c6c6}.cls-39{fill:#e1e1e1}.cls-40{fill:#d5d5d5}.cls-41{fill:#0b0b0b}.cls-42{fill:#3f3f3f}.cls-43{fill:#9b9b9b}.cls-44{fill:#949494}.cls-45{fill:#727272}.cls-46{fill:#636363}.cls-47{fill:#575757}.cls-48{fill:#3c3c3c}.cls-49{fill:#838383}.cls-50{fill:#777}.cls-51{fill:#797979}.cls-52{fill:#343434}.cls-53{fill:#515151}</style></defs><path d="M198.47,99.15c.06,54.52-44.65,99.4-98.99,99.38C44.92,198.51,.1,153.93,0,99.58-.1,44.79,44.62-.06,99.28,0c54.58,.06,99.13,44.6,99.19,99.15ZM63.14,9.62c-4.67,2.35-9.34,4.69-14.01,7.04-.3,.04-.57,.16-.79,.36-.37,.25-.74,.5-1.11,.75C28.38,29.45,15.46,45.82,8.33,66.79c-.75,1.65-1.7,3.24-2.23,4.96-3.84,12.42-4.77,25.19-3.3,38.01,1.15,10.08,3.53,19.96,8.46,29.02,1.33,2.66,2.67,5.32,4,7.98,.05,.32,.16,.63,.34,.9,.23,.39,.45,.77,.68,1.16,2.54,3.69,5.08,7.39,7.63,11.08,.21,.28,.43,.56,.64,.84,.27,.29,.54,.58,.81,.88,4.65,4.55,9.3,9.09,13.95,13.64,2.33,1.81,4.53,3.8,7,5.4,12.79,8.29,26.58,13.88,41.95,14.98,.62,.05,1.24,.11,1.85,.16,6.42,0,12.84-.01,19.27-.02,14.84-1.15,28.52-5.76,40.99-13.9,22.79-14.92,38.09-35.15,43.98-62.05,.24-1.05,.49-2.11,.73-3.16,.08-.62,.15-1.23,.23-1.85,1.67-11.14,1.48-22.22-.95-33.24-2.07-6.91-4.13-13.83-6.2-20.74-4.4-7.41-8.05-15.4-13.35-22.09-10.22-12.91-22.67-23.33-38.61-28.81-.25-.1-.52-.14-.79-.13-.36-.24-.72-.48-1.08-.72-14.5-5.87-29.6-7.33-45.07-6.08-1.67,.27-3.34,.55-5.01,.82-.63,.06-1.26,.12-1.89,.18-4.74,1.2-9.47,2.39-14.21,3.59-1.67,.68-3.34,1.37-5.01,2.05Z" class="cls-41"/><path d="M195.3,114.8c-.08,.62-.15,1.23-.23,1.85-.24,1.05-.49,2.11-.73,3.16-5.89,26.9-21.19,47.13-43.98,62.05,.28-.85,.35-1.85,.86-2.52,2-2.61,4.13-5.11,6.21-7.66,.26-.29,.53-.59,.79-.88,.11-.41,.21-.81,.32-1.22,3.89-5.61,7.78-11.22,11.67-16.83,4.33-6.3,8.66-12.6,13-18.9,.95-1.12,1.9-2.24,2.85-3.36,1.05-1.91,2.09-3.81,3.14-5.72,1.26-2.5,2.45-5.03,3.82-7.46,.54-.96,1.5-1.69,2.27-2.52Z" class="cls-8"/><path d="M24.55,160.73c-.21-.28-.43-.56-.64-.84,.75-1.48,1.51-2.97,2.26-4.45,.02-.24,.1-.46,.25-.66,1.93-1.03,3.9-1.99,5.77-3.11,.84-.5,1.5-1.31,2.23-1.99,.66-4.67,5.14-4.16,7.97-5.89,.69,.8,2.05,1.73,1.92,2.36-.36,1.72-1.07,3.53-2.14,4.91-1.65,2.12-1.4,3.56,.33,5.53,3.88,4.42,4.8,9.56,2.8,15.16-.7,.28-1.4,.57-2.1,.85l-3.9,2.64c-4.65-4.55-9.3-9.09-13.95-13.64-.27-.29-.54-.58-.81-.88Z" class="cls-15"/><path d="M158.55,169.59c-.11,.41-.21,.81-.32,1.22-.26,.29-.53,.59-.79,.88-2.08,2.54-4.22,5.05-6.21,7.66-.51,.67-.59,1.67-.86,2.52-12.47,8.15-26.15,12.75-40.99,13.9-6.42,0-12.84,.01-19.27,.02-.62-.05-1.24-.11-1.85-.16-1.19-.81-2.38-1.63-3.58-2.44,1.52-.42,3.03-.85,4.55-1.26,.15-.04,.33,.03,.49,.04,11.79,.69,23.47,.07,34.85-3.38,.98-.3,1.77-1.24,2.65-1.89,10.57-4.49,20.99-9.24,29.91-16.69,.35-.29,.94-.29,1.42-.43Z" class="cls-25"/><path d="M136.19,9.91c15.94,5.48,28.39,15.9,38.61,28.81,5.3,6.69,8.95,14.68,13.35,22.09-.98,.66-1.97,1.32-2.95,1.98-2.34-4-4.67-8-7.01-11.99-2.18-3.27-4.16-6.7-6.62-9.74-1.4-1.72-3.58-2.81-5.42-4.18-7.96-7.84-15.8-15.84-25.96-20.96-1.18-2.1-5.79-1.92-4.01-6Z" class="cls-16"/><path d="M48.33,17.02c.23-.2,.49-.32,.79-.36,.71,1.04,1.42,2.07,2.13,3.11,0,0,0,0,0,0-.34,.25-.67,.51-1.01,.76-3.97,3.09-7.93,6.19-11.9,9.28-15.96,13.81-26.27,30.91-30.22,51.73-.25,.74-.51,1.48-.76,2.22-.07,.6-.14,1.19-.21,1.79-.05-1.97-.27-3.95-.12-5.9,.33-4.3,.85-8.59,1.3-12.89C15.46,45.82,28.38,29.45,47.23,17.78c.37-.25,.74-.5,1.11-.75Z" class="cls-1"/><path d="M127.22,186.7c-.88,.64-1.67,1.59-2.65,1.89-11.38,3.44-23.06,4.07-34.85,3.38-.17,0-.34-.08-.49-.04-1.52,.41-3.04,.84-4.55,1.26,1.19,.81,2.38,1.63,3.58,2.44-15.37-1.1-29.16-6.69-41.95-14.98-2.46-1.6-4.67-3.59-7-5.4l3.9-2.64c7.9,7.02,17.15,11.5,27.19,14.49,.54,.16,1.25-.23,1.87-.37,1.71,.27,3.41,.54,5.12,.8l1.83,.23c.36,.25,.71,.51,1.07,.76,.99,.08,1.98,.15,2.96,.23,1.01,.27,2.01,.54,3.02,.81,7.29,.35,14.59,.71,21.88,1.06l4.1-.81,2.92-.16c.69-.27,1.38-.53,2.07-.8,.97-.06,1.95-.12,2.92-.18,.36-.26,.72-.52,1.08-.78,.98-.07,1.95-.14,2.93-.22,.36-.27,.71-.54,1.07-.8,.66-.06,1.32-.12,1.99-.17Z" class="cls-43"/><path d="M136.19,9.91c-1.78,4.08,2.82,3.9,4.01,6-15.21-5.2-30.66-9.03-46.93-8.1-1.89-.35-3.87-.49-5.66-1.12-1.84-.65-3.51-1.8-5.26-2.72,.63-.06,1.26-.12,1.89-.18,1.67-.27,3.34-.55,5.01-.82,15.46-1.25,30.56,.21,45.07,6.08,.36,.24,.72,.48,1.08,.72,.27-.01,.54,.03,.79,.13Z" class="cls-21"/><path d="M8.33,66.79c-.44,4.3-.97,8.58-1.3,12.89-.15,1.95,.07,3.93,.12,5.9-.27,3.77-.58,7.54-.82,11.32-.74,12.1,1.86,23.64,5.82,34.95-.3,2.31-.6,4.62-.91,6.93-4.93-9.05-7.3-18.94-8.46-29.02-1.47-12.82-.54-25.59,3.3-38.01,.53-1.72,1.48-3.31,2.23-4.96Z" class="cls-45"/><path d="M82.35,3.98c1.74,.93,3.41,2.07,5.26,2.72,1.79,.64,3.77,.77,5.66,1.12-2.31,.29-4.63,.51-6.93,.88-13.82,2.22-26.72,6.73-37.94,15.38l-9.13,6.58c-.31-.28-.62-.56-.93-.84,3.97-3.09,7.93-6.19,11.9-9.28,.34-.25,.67-.51,1.01-.76h0c4.09-2.31,8.18-4.61,12.26-6.91,2.83-.64,5.74-1.22,4.63-5.31l14.21-3.59Z" class="cls-47"/><path d="M195.3,114.8c-.77,.83-1.73,1.56-2.27,2.52-1.37,2.43-2.56,4.97-3.82,7.46,.85-5.41,2.19-10.8,2.43-16.24,.32-7.25-.22-14.54-.39-21.81l3.1-5.18c2.42,11.02,2.62,22.11,.95,33.24Z" class="cls-46"/><path d="M194.35,81.56l-3.1,5.18c-2.01-7.98-4.03-15.96-6.04-23.94,.98-.66,1.97-1.32,2.95-1.98,2.07,6.91,4.13,13.83,6.2,20.74Z" class="cls-51"/><path d="M26.17,155.44c-.75,1.48-1.51,2.97-2.26,4.45-2.54-3.69-5.08-7.39-7.63-11.08-.23-.39-.45-.77-.68-1.16-.18-.28-.29-.58-.34-.9,0-1.38,.04-2.76,.01-4.13-.02-1.25-.11-2.49-.17-3.74,3.69,5.52,7.38,11.04,11.07,16.56Z" class="cls-39"/><path d="M63.52,12.88l-12.26,6.9c-.71-1.04-1.42-2.07-2.13-3.11,4.67-2.35,9.34-4.69,14.01-7.04,.13,1.08,.25,2.17,.38,3.25Z" class="cls-29"/><path d="M15.1,138.88c.06,1.25,.15,2.49,.17,3.74,.03,1.38,0,2.76-.01,4.13-1.33-2.66-2.67-5.32-4-7.98,.3-2.31,.6-4.62,.91-6.93,.06,.3,.11,.61,.17,.91,.27,.34,.53,.69,.8,1.03,.66,1.7,1.31,3.4,1.97,5.1Z" class="cls-17"/><path d="M63.52,12.88c-.13-1.08-.25-2.17-.38-3.25,1.67-.68,3.34-1.37,5.01-2.05,1.11,4.09-1.8,4.66-4.63,5.31Z" class="cls-22"/><path d="M90.11,195.79c6.42,0,12.84-.01,19.27-.02-6.42,0-12.84,.01-19.27,.02Z" class="cls-43"/><path d="M89.25,2.98c-1.67,.27-3.34,.55-5.01,.82,1.67-.27,3.34-.55,5.01-.82Z" class="cls-47"/><path d="M194.35,119.81c.24-1.05,.49-2.11,.73-3.16-.24,1.05-.49,2.11-.73,3.16Z" class="cls-46"/><path d="M15.6,147.65c.23,.39,.45,.77,.68,1.16-.23-.39-.45-.77-.68-1.16Z" class="cls-17"/><path d="M24.55,160.73c.27,.29,.54,.58,.81,.88-.27-.29-.54-.58-.81-.88Z" class="cls-39"/><path d="M48.33,17.02c-.37,.25-.74,.5-1.11,.75,.37-.25,.74-.5,1.11-.75Z" class="cls-29"/><path d="M135.4,9.78c-.36-.24-.72-.48-1.08-.72,.36,.24,.72,.48,1.08,.72Z" class="cls-16"/><path d="M77.39,187.53c-1.71-.27-3.41-.54-5.12-.8h0c-.35-.27-.69-.54-1.04-.81-4.43-1.84-9.05-3.33-13.24-5.63-4.45-2.45-8.48-5.65-12.7-8.53,2-5.6,1.07-10.74-2.8-15.16-1.72-1.97-1.98-3.41-.33-5.53,1.08-1.38,1.79-3.19,2.14-4.91,.13-.63-1.24-1.56-1.92-2.36-.7-1.35-1.4-2.69-2.1-4.04,.22-.8,.3-1.67,.69-2.39,2.04-3.79,3.9-7.41,2.63-12.13-.71-2.65,1.91-3.44,4.31-3.44,1.79,0,4.13,.69,5.27-.17,3.2-2.44,6.56-1.6,10-1.68,3.04-.07,6.06-.76,9.1-1.18,2.84-.28,5.28,.4,6.93,2.92-1.69,6.15-3.41,12.29-5,18.46-.11,.42,.71,1.08,1.1,1.63,4.06,.55,5.49-3.09,8-5.01,4.42,3.38,8.64,7.39,14.98,4.96,.32-.33,.65-.67,.97-1,3.68,8.66,7.36,17.33,11.04,25.99-.68-.33-1.37-.66-2.05-.99-1.48-7.39-2.44-7.99-9.75-7.23-2.91,.3-5.96,.24-8.83-.25-5.5-.95-10.92-2.33-16.37-3.53-1.33-.66-2.67-1.32-4-1.98-.34-.33-.67-.65-1.01-.98-1.34-.67-2.67-1.34-4.01-2.02-.33-.32-.65-.64-.98-.97-.34-.01-.67-.02-1.01-.04-1.61-1.6-3.04-3.5-4.91-4.7-1.18-.76-3.31-1.1-4.54-.56-4.9,2.18-5.47,7.08-1.49,10.76,.6,.55,1.29,.99,1.94,1.49h0c.32,.34,.65,.66,.97,.98,1,.68,2,1.35,3,2.03,.34,.33,.68,.66,1.01,1,1.32,1.32,2.65,2.65,3.97,3.97-1.68,.94-3.35,1.87-5.03,2.8-.14,.08-.35,.05-.47,.14-1.01,.73-2.85,1.53-2.81,2.21,.07,1.24,1.09,2.6,2.05,3.56,1.03,1.03,2.36,1.93,3.73,2.43,6.38,2.29,12.71,4.8,19.25,6.53,11.35,3,22.41,2.01,32.48-4.51,5.4-3.49,10.52-7.42,15.77-11.15,.62,.22,1.28,.72,1.84,.61,4.28-.78,9.06,.28,12.59-3.3,2.04-2.06,7.21,.49,7.1-4.8,0,0,.9-.07,1.38-.05,8.07,.37,14.01-4.48,18.75-9.63,4.22-4.58,6.29-11.14,9.31-16.82,.66-1.33,1.32-2.66,1.98-3.99,1.71,.38,3.42,.76,5.14,1.14,0,.3-.06,.59-.18,.87l-1.91,4.1c-4.33,6.3-8.66,12.6-13,18.9-3.26,2.76-6.62,5.41-9.77,8.28-17.62,16.04-37.99,25.42-62.09,25.6-5.29,.04-10.59-.9-15.89-.99-1.68-.03-3.39,1.21-5.08,1.87Z" class="cls-31"/><path d="M77.39,187.53c1.69-.66,3.4-1.9,5.08-1.87,5.3,.1,10.6,1.03,15.89,.99,24.1-.18,44.48-9.56,62.09-25.6,3.16-2.87,6.51-5.53,9.77-8.28-3.89,5.61-7.78,11.22-11.67,16.83-.48,.14-1.07,.14-1.42,.43-8.92,7.45-19.34,12.2-29.91,16.69-.66,.06-1.32,.12-1.99,.17-.36,.27-.71,.54-1.07,.8-.98,.07-1.95,.14-2.93,.22-.36,.26-.72,.52-1.08,.78-.97,.06-1.95,.12-2.92,.18-.69,.27-1.38,.53-2.07,.8l-2.92,.16-4.1,.81c-7.29-.35-14.59-.71-21.88-1.06-1.01-.27-2.01-.54-3.02-.81-.99-.08-1.98-.15-2.96-.23-.36-.25-.71-.51-1.07-.76l-1.83-.23Z" class="cls-5"/><path d="M185.13,129.77c.12-.28,.18-.57,.18-.87,5.37-13.71,5.82-27.89,4.01-42.28-1.79-6.91-3.58-13.81-5.38-20.72-1.54-3.04-3.09-6.08-4.63-9.12-.13-.33-.27-.66-.4-.99-.23-.34-.47-.69-.7-1.03-.32-.99-.64-1.98-.97-2.96,.32-.33,.63-.66,.95-.99,2.34,4,4.67,8,7.01,11.99,2.01,7.98,4.03,15.96,6.04,23.94,.17,7.27,.71,14.56,.39,21.81-.24,5.44-1.58,10.83-2.43,16.24-1.05,1.91-2.09,3.81-3.14,5.72-.31-.25-.63-.49-.94-.74Z" class="cls-42"/><path d="M185.13,129.77c.31,.25,.63,.49,.94,.74-.95,1.12-1.9,2.24-2.85,3.36,.64-1.37,1.27-2.73,1.91-4.1Z" class="cls-34"/><path d="M157.44,171.69c.26-.29,.53-.59,.79-.88-.26,.29-.53,.59-.79,.88Z" class="cls-5"/><path d="M40.29,139.76c.7,1.35,1.4,2.69,2.1,4.04-2.83,1.73-7.31,1.22-7.97,5.89-1.66,1.21-2.73,.44-3.63-1.05-2.4-3.97-5.17-7.77-7.15-11.94-1.82-3.82-3.53-7.95-3.97-12.08-.52-4.87,.37-9.89,.65-14.85,.02-1.32,.03-2.64,.05-3.95,1.32-.68,2.64-1.36,3.96-2.04-.93,1.64-.8,3.01,1,3.97,1,1.67,1.99,3.34,2.99,5.01-.94,.31-1.94,.51-2.81,.95-.8,.41-1.46,1.07-2.19,1.63,.95,.42,1.97,1.3,2.83,1.16,1.76-.29,3.44-1.13,5.15-1.74,.34,0,.68,0,1.02,.01,1.66,.32,3.32,.65,4.98,.97-2.28,.78-4.57,1.53-6.82,2.4-.31,.12-.38,.87-.56,1.33,.47,.11,.93,.22,1.4,.33,.84,2.66,1.43,5.43,2.57,7.95,1.35,2.99,3.36,5.74-1.66,7.24-.59,.18-1.28,1.67-1.11,2.34,.2,.78,1.21,1.62,2.04,1.87,.4,.12,1.46-.9,1.76-1.61,1.13-2.62,2.25-2.66,3.68-.26,.51,.85,1.13,1.63,1.71,2.44Z" class="cls-27"/><path d="M20.32,109.76c-.28,4.96-1.17,9.98-.65,14.85,.44,4.13,2.16,8.26,3.97,12.08,1.99,4.17,4.75,7.97,7.15,11.94,.9,1.49,1.97,2.26,3.63,1.05-.74,.67-1.39,1.49-2.23,1.99-1.87,1.12-3.84,2.08-5.77,3.11-.78-1.44-1.6-2.86-2.35-4.32-3.52-6.92-7.03-13.85-10.54-20.78,4.18-2.77,2.91-7.09,2.63-10.79-.3-4.06,.6-7.06,4.15-9.12Z" class="cls-29"/><path d="M13.53,129.68c3.51,6.93,7.01,13.86,10.54,20.78,.74,1.46,1.56,2.88,2.35,4.32-.15,.2-.23,.42-.25,.66-3.69-5.52-7.38-11.04-11.07-16.56-.66-1.7-1.31-3.4-1.97-5.1-.27-.34-.53-.69-.8-1.03-.05-.3-.11-.61-.17-.91-3.97-11.31-6.57-22.86-5.82-34.95,.23-3.78,.54-7.55,.82-11.32,.07-.6,.14-1.19,.21-1.79,.25-.74,.51-1.48,.76-2.22,3.95-20.82,14.26-37.93,30.22-51.73,.31,.28,.62,.56,.93,.84-2.25,2.21-4.62,4.31-6.72,6.65C15.08,56.78,6.67,79.46,8.51,105.72c1.02,6.02,2.05,12.05,3.07,18.07,.22,.46,.44,.92,.65,1.38,.1,.54,.2,1.07,.3,1.61l.7,1.38c.1,.5,.2,1,.3,1.51Z" class="cls-52"/><path d="M45.31,171.76c4.22,2.88,8.25,6.09,12.7,8.53,4.18,2.3,8.81,3.79,13.24,5.63,.35,.27,.69,.54,1.04,.8h0c-.63,.14-1.33,.53-1.87,.37-10.04-2.99-19.29-7.47-27.19-14.49,.7-.28,1.4-.57,2.1-.85Z" class="cls-50"/><path d="M177.25,51.79c.32,.99,.64,1.98,.97,2.97,.23,.34,.47,.69,.7,1.03,.13,.33,.27,.66,.4,.99-4.67,2.02-9.44,3.85-13.98,6.13-3.2,1.61-.84,4.1-.1,5.96,.91,2.31,2.23,.73,3.5-.05,1.43-.89,2.99-1.88,4.59-2.11,3.5-.51,7.07-.57,10.62-.81,1.79,6.91,3.58,13.81,5.38,20.72-.63,1.46-.88,3.75-1.95,4.24-3.41,1.56-3.2,4.27-3.19,7.12,.02,9.89-1.76,19.46-4.98,28.79-1.65-.37-3.31-.75-4.96-1.12-.41-.72-.83-1.44-1.24-2.16-1.91-3.38-4.31-4.33-8.18-2.74-6.92,2.85-12.35,7.62-17.66,12.61-7.58,7.12-14.94,14.49-22.74,21.37-2.89,2.55-6.74,4.02-10.16,5.99-.1-3.86-.41-7.76,4.21-9.6,9.46-3.77,16.11-11.5,24.07-17.38,3.4-2.51,6.21-5.98,8.83-9.37,6.74-8.71,8.41-18.89,7.81-29.6,3.21-1.28,6.43-2.55,9.63-3.86,.87-.35,1.68-.83,2.52-1.24-.73-.78-1.4-1.65-2.23-2.29-.49-.38-1.25-.39-1.89-.57-1.8-.09-3.64,.03-5.39-.33-1.14-.24-2.9-1-3.07-1.81-1-4.67-2.24-9.44-2.2-14.16,.05-6.31,.52-6.29-5.41-9.33-1.02-.52-2.03-1.15-2.9-1.9-4.01-3.46-7.96-6.98-11.93-10.48-3.02-4.51-4.84-10.42-11.9-10.22,2.93-3.79,.11-6.21-2.1-8.78-.62-.39-1.23-.78-1.85-1.16-5.67-4.57-11.2-9.34-17.05-13.66-5.31-3.92-11.31-4.8-17.94-3.58-10.06,1.86-19.48,5.23-28.39,10.17-2.6,1.41-5.19,2.82-7.79,4.23-.3-.57-.59-1.14-.89-1.7,11.22-8.65,24.12-13.16,37.94-15.38,2.3-.37,4.62-.59,6.93-.88,16.27-.94,31.72,2.9,46.93,8.1,10.16,5.12,18,13.12,25.96,20.96,3.7,4.97,7.39,9.94,11.09,14.91Z" class="cls-2"/><path d="M177.25,51.79c-3.7-4.97-7.39-9.94-11.09-14.91,1.83,1.37,4.02,2.46,5.42,4.18,2.46,3.04,4.44,6.47,6.62,9.74-.32,.33-.63,.66-.95,.99Z" class="cls-48"/><path d="M8.12,81.56c-.25,.74-.51,1.48-.76,2.22,.25-.74,.51-1.48,.76-2.22Z" class="cls-45"/><path d="M51.25,19.78c-.34,.25-.67,.51-1.01,.76,.34-.25,.67-.51,1.01-.76Z" class="cls-29"/><path d="M108.14,190.62l4.1-.81-4.1,.81Z" class="cls-25"/><path d="M83.24,188.74c1.01,.27,2.01,.54,3.02,.81-1.01-.27-2.01-.54-3.02-.81Z" class="cls-31"/><path d="M115.16,189.65c.69-.27,1.38-.53,2.07-.8-.69,.27-1.38,.53-2.07,.8Z" class="cls-25"/><path d="M124.16,187.68c.36-.27,.71-.54,1.07-.8-.36,.27-.71,.54-1.07,.8Z" class="cls-25"/><path d="M79.21,187.75l1.07,.76-1.07-.76Z" class="cls-31"/><path d="M120.16,188.67c.36-.26,.72-.52,1.08-.78-.36,.26-.72,.52-1.08,.78Z" class="cls-25"/><path d="M48.4,24.08c.3,.57,.59,1.14,.89,1.7l.2,.17c-2.85,2.23-5.73,4.41-8.54,6.69-4.55,3.69-6.05,8.45-4.74,14.14-1.05-.71-2.11-1.42-3.16-2.13,.22-1.33,.44-2.66,.67-4-1.02,.79-2.42,1.37-3,2.4-4.6,8.24-9.14,16.53-13.45,24.92-.63,1.22-.02,3.09,.02,4.65-.24,1.47-.84,3-.63,4.4,.2,1.35,.94,3.18,1.99,3.69,.96,.47,2.86-.23,3.94-.99,1.46-1.03,2.53-2.61,3.76-3.96-.55,1.88-1.09,3.76-1.65,5.63-.66,2.22-.96,4.1,2.14,4.85,2.13,.51,3.32,2.08,2.49,4.5-.67,.34-1.34,.68-2,1.02-.33,0-.66,.01-.99,.02-.34,.32-.68,.63-1.03,.95-.66,0-1.31,.02-1.97,.02l-1.01,.98s0,0,0,0c-.33,1-.66,2-1,3h0c-2.92,2.09-5.83,4.19-8.77,6.26-1.32,.93-2.69,1.8-4.04,2.69-1.84-26.27,6.56-48.94,24.03-68.41,2.1-2.34,4.48-4.44,6.72-6.65l9.13-6.58Z" class="cls-5"/><path d="M12.33,132.75c.27,.34,.53,.69,.8,1.03-.27-.34-.53-.69-.8-1.03Z" class="cls-45"/><path d="M110.31,166.72c.98,1,1.96,2,2.93,3.01,2.54-2.76,2.33-5.83,1.03-9.02,3.41-1.96,7.27-3.43,10.16-5.99,7.79-6.88,15.15-14.25,22.74-21.37,5.31-4.99,10.74-9.75,17.66-12.61,3.87-1.59,6.27-.64,8.18,2.74,.41,.72,.82,1.44,1.24,2.16-11.1-.25-19.65,4.73-26.52,13.04-3.26,3.94-6.37,8.01-9.55,12.02-3.65,5.01-7.3,10.01-10.94,15.02-5.25,3.73-10.37,7.66-15.77,11.15-10.07,6.51-21.13,7.51-32.48,4.51-6.54-1.73-12.87-4.24-19.25-6.53-1.37-.49-2.7-1.4-3.73-2.43-.96-.96-1.98-2.32-2.05-3.56-.04-.68,1.81-1.48,2.81-2.21,.12-.09,.33-.06,.47-.14,1.68-.93,3.35-1.87,5.03-2.8-1.32-1.32-2.65-2.65-3.97-3.97-.34-.33-.68-.66-1.01-1-1-.68-2-1.35-3-2.03-.32-.32-.65-.65-.97-.97h0c1.68-4.04,4.2-6.98,8.99-7,.34,.01,.67,.02,1.01,.04,.33,.32,.65,.64,.98,.97,1.34,.67,2.67,1.34,4.01,2.02,.34,.33,.67,.65,1.01,.98,1.33,.66,2.67,1.32,4,1.98-2.27,.34-4.69,.3-6.77,1.13-1.5,.6-3.47,2.29-3.53,3.57-.06,1.21,1.87,3.01,3.33,3.71,4.32,2.07,8.83,3.76,13.29,5.53,10.04,3.97,19.51,2.17,28.63-2.92,.68,.33,1.37,.66,2.05,.99Z" class="cls-12"/><path d="M108.26,165.73c-9.12,5.09-18.59,6.89-28.63,2.92-4.46-1.76-8.97-3.46-13.29-5.53-1.46-.7-3.39-2.5-3.33-3.71,.07-1.29,2.03-2.98,3.53-3.57,2.08-.83,4.5-.79,6.77-1.13,5.45,1.2,10.87,2.58,16.37,3.53,2.88,.5,5.92,.56,8.83,.25,7.3-.76,8.27-.17,9.75,7.23Z" class="cls-7"/><path d="M127.22,165.72c3.65-5.01,7.3-10.01,10.94-15.02,1.58,0,3.36,.47,4.69-.1,6.52-2.8,12.91-5.88,19.35-8.86,.54,.62,.97,1.43,1.64,1.82,1.17,.68,2.77,1.79,3.68,1.43,1.07-.42,1.84-2.14,2.27-3.45,.26-.79-.37-1.87-.6-2.82l-.03,.02c2.96-.72,3.25-2.51,1.98-4.93,2.35-.69,4.69-1.39,7.04-2.08-3.02,5.68-5.1,12.24-9.31,16.82-4.74,5.15-10.68,10-18.75,9.63-.48-.02-1.38,.04-1.38,.05,.1,5.29-5.07,2.73-7.1,4.8-3.53,3.58-8.31,2.52-12.59,3.3-.56,.1-1.22-.39-1.84-.61Z" class="cls-34"/><path d="M178.19,131.74c-2.35,.69-4.69,1.39-7.04,2.08l-5.06,.85c.94,1.23,1.87,2.45,2.8,3.68,.1,.13,.18,.27,.27,.41l.03-.02c-2.28-.78-4.55-1.56-6.83-2.34-2.16-.74-2.68,.16-2.07,2.11,.24,.76,.62,1.48,.93,2.22l.98,1.03h0c-6.44,2.98-12.84,6.06-19.35,8.86-1.33,.57-3.12,.09-4.69,.1,3.18-4.01,6.29-8.07,9.55-12.02,6.87-8.31,15.42-13.29,26.52-13.04,1.65,.37,3.31,.75,4.96,1.12,.32,.33,.65,.66,.97,.99-.66,1.33-1.32,2.66-1.98,3.99Z" class="cls-24"/><path d="M31.31,119.77c2.65-.35,5.29-.71,7.94-1.06,3.68-.29,7.35-.58,11.03-.88,7.34,0,14.67-.02,22.01-.02,0,.32,0,.64,0,.96-3.03,.42-6.06,1.11-9.1,1.18-3.44,.08-6.8-.76-10,1.68-1.14,.87-3.48,.17-5.27,.17-2.4,0-5.02,.79-4.31,3.44,1.26,4.72-.6,8.34-2.63,12.13-.38,.71-.46,1.59-.69,2.39-.57-.81-1.2-1.59-1.71-2.44-1.43-2.4-2.55-2.36-3.68,.26-.3,.7-1.36,1.73-1.76,1.61-.83-.26-1.84-1.09-2.04-1.87-.17-.68,.52-2.17,1.11-2.34,5.02-1.5,3.01-4.26,1.66-7.24-1.14-2.52-1.73-5.29-2.57-7.95Z" class="cls-29"/><path d="M180.17,127.75c-.32-.33-.65-.66-.97-.99,3.22-9.33,5-18.91,4.98-28.79,0-2.85-.22-5.56,3.19-7.12,1.07-.49,1.32-2.78,1.95-4.24,1.8,14.39,1.36,28.57-4.01,42.28-1.71-.38-3.42-.76-5.14-1.14Z" class="cls-34"/><path d="M75.32,141.78c4.45-3.7,8.99-7.32,13.33-11.14,2.72-2.39,5.8-4.82,3.3-9.26-.41-.72-.37-2.19,.12-2.81,1.13-1.45,2.64-2.59,4-3.85,.6,1.76,2.19,3.95,1.64,5.22-3.16,7.32-.62,14.01,1.56,20.81-.32,.33-.65,.67-.97,1-1-2.59-2.04-5.16-2.99-7.76-1.53-4.18-2.44-4.48-6.21-1.73-1.97,1.44-3.85,3.01-5.78,4.52-2.51,1.92-3.94,5.57-8,5.01Z" class="cls-33"/><path d="M83.32,136.77c1.92-1.51,3.8-3.08,5.78-4.52,3.77-2.75,4.68-2.46,6.21,1.73,.95,2.6,1.99,5.18,2.99,7.76-6.34,2.42-10.56-1.58-14.98-4.96Z" class="cls-6"/><path d="M62.3,148.73c-4.79,.02-7.31,2.96-8.99,6.99-.65-.49-1.35-.94-1.94-1.49-3.98-3.68-3.41-8.58,1.49-10.76,1.23-.55,3.35-.2,4.54,.56,1.87,1.2,3.29,3.1,4.91,4.7Z" class="cls-14"/><path d="M72.29,118.77c0-.32,0-.64,0-.96,.31-.06,.62-.09,.94-.1,.68-.28,1.37-.56,2.05-.84,.66-.04,1.32-.08,1.98-.12l1.03-.91c1.6-1.33,3.06-2.88,4.82-3.92,1.6-.94,3.5-1.39,5.32-1.88,.25-.07,1.19,1.09,1.1,1.24-.98,1.64-1.86,3.48-3.26,4.69-1.78,1.54-4.01,2.55-6.05,3.79-.3,.35-.61,.69-.91,1.04-.02,.3-.04,.6-.07,.9-1.66-2.52-4.1-3.2-6.93-2.92Z" class="cls-26"/><path d="M64.29,149.74c-.33-.32-.65-.64-.98-.97,.33,.32,.65,.64,.98,.97Z" class="cls-14"/><path d="M69.31,152.73c-.34-.33-.67-.65-1.01-.98,.34,.33,.67,.65,1.01,.98Z" class="cls-14"/><path d="M53.31,155.74c.32,.32,.65,.65,.97,.97-.32-.32-.65-.65-.97-.97Z" class="cls-14"/><path d="M57.28,158.74c.34,.33,.68,.66,1.01,1-.34-.33-.68-.66-1.01-1Z" class="cls-14"/><path d="M72.28,186.72c-.35-.27-.69-.54-1.04-.8,.35,.27,.69,.54,1.04,.8Z" class="cls-43"/><path d="M183.95,65.89c-3.54,.24-7.11,.3-10.62,.81-1.61,.23-3.16,1.23-4.59,2.11-1.27,.79-2.59,2.36-3.5,.05-.74-1.87-3.1-4.36,.1-5.96,4.54-2.28,9.31-4.11,13.98-6.13,1.54,3.04,3.09,6.08,4.63,9.12Z" class="cls-35"/><path d="M178.92,55.78c-.23-.34-.47-.69-.7-1.03,.23,.34,.47,.69,.7,1.03Z" class="cls-35"/><path d="M48.31,111.7c-.32,.04-.64,.07-.96,.08-.35,.29-.69,.59-1.04,.88-1.32,.37-2.63,.75-3.95,1.12-.35,.3-.7,.6-1.05,.9-.63,.05-1.25,.09-1.88,.14-.38,.31-.75,.61-1.13,.92-.34,0-.69-.02-1.03-.03-1.66-.32-3.32-.65-4.98-.97l-2.01-1.96c-.66-.02-1.32-.03-1.98-.05-1-1.67-1.99-3.34-2.99-5.01,2.01-1.91,1.88-3.29-1-3.97-1.32,.68-2.64,1.36-3.96,2.04,.32-3.01,.64-6.03,.96-9.04h0c.33-1,.66-2,1-3,0,0,0,0,0,0l1.01-.98c.66,0,1.31-.02,1.97-.02,.34-.32,.68-.63,1.03-.95,.33,0,.66-.02,.99-.02,.02,1.33-.09,2.68,.08,3.99,.37,3.02,.81,6.42,4.8,6.32,3.05-.07,4.03,1.46,4.96,3.8,1.48,3.7,3.53,4.24,6.07,1.2,1.6-1.92,2.19-4.67,3.3-7.02,.33-.69,.88-1.26,1.34-1.89,.42,.66,.95,1.29,1.23,2.01,.23,.6,.14,1.31,.22,1.97,.65,5.05,1.75,5.72,6.45,3.54,4.02-1.87,7.68-4.26,12.41-4.69,3.7-.34,4.36-3.18,1.88-6.05-1.84-2.13-4.05-3.93-5.98-5.98-1.79-1.9-3.16-4.54-6.53-2.79-.35,.18-1.31-.27-1.65-.69-2.46-3.01-.71-8.86,2.72-10.75,2.84-1.57,5.48-3.64,7.89-5.84,1.99-1.82,2.59-3.89-.8-5.34-1.29-.55-2.26-1.82-3.38-2.76,1.99-.35,3.98-.7,5.97-1.05,6.1-1.45,12.2-2.9,18.3-4.37,.92-.22,1.83-.51,2.74-.77-.18,1.05-.06,2.3-.6,3.12-4.51,7.01-5.5,14.62-3.33,22.48,.78,2.84,3.06,5.25,4.5,7.93,1.05,1.97,1.88,4.06,2.69,6.15,.06,.15-1.13,1.09-1.29,.99-1.88-1.22-4.83-2.26-5.28-3.95-1.55-5.69-5.87-6.58-10.51-7.65-4.21-.96-8.32-2.31-12.5-3.4-.73-.19-1.57,.06-2.36,.11,.33,.69,.54,1.49,1.02,2.07,2.85,3.45,5.75,6.85,8.64,10.27,.31,.34,.62,.68,.93,1.02,.69,.95,1.38,1.9,2.07,2.85,.35,.38,.69,.76,1.04,1.14l.03-.05c-1.63,4.17,2.78,2.44,3.87,3.96-1.97,.04-3.94,.07-5.91,.11-.34,.29-.68,.59-1.02,.88-.66,.04-1.32,.08-1.98,.11-.34,.3-.68,.59-1.02,.89-1.66,.37-3.32,.74-4.98,1.1-.34,.29-.67,.59-1.01,.88-1.31,.38-2.63,.76-3.94,1.14-.36,.3-.71,.6-1.07,.9-.31,.04-.62,.07-.94,.09-.35,.3-.71,.6-1.06,.9-.31,.04-.63,.08-.94,.1-.35,.3-.7,.6-1.06,.91-.63,.04-1.26,.08-1.9,.12l-1.11,.91c-.3,.04-.61,.07-.91,.07-.36,.3-.72,.6-1.08,.9Z" class="cls-30"/><path d="M21.32,96.77c-.32,3.01-.64,6.03-.96,9.04-.02,1.32-.03,2.64-.05,3.95-3.55,2.06-4.45,5.06-4.15,9.12,.28,3.7,1.54,8.03-2.63,10.79-.1-.5-.2-1-.3-1.51l-.7-1.38c-.1-.54-.2-1.07-.3-1.61-.22-.46-.44-.92-.65-1.38-1.02-6.02-2.05-12.05-3.07-18.07,1.35-.9,2.72-1.76,4.04-2.69,2.94-2.07,5.85-4.18,8.77-6.27Z" class="cls-23"/><path d="M28.31,112.74c.66,.02,1.32,.03,1.98,.05,.33,.65,.66,1.3,.99,1.94-1.71,.61-3.38,1.45-5.15,1.74-.86,.14-1.88-.74-2.83-1.16,.72-.55,1.39-1.22,2.19-1.63,.87-.44,1.87-.64,2.81-.95Z" class="cls-4"/><path d="M24.32,103.76c2.89,.68,3.01,2.05,1,3.97-1.8-.95-1.93-2.33-1-3.97Z" class="cls-23"/><path d="M31.28,114.73c-.33-.65-.66-1.3-.99-1.94l2.01,1.96c-.34,0-.68,0-1.02-.01Z" class="cls-23"/><path d="M11.59,123.8c.22,.46,.44,.92,.65,1.38-.22-.46-.44-.92-.65-1.38Z" class="cls-29"/><path d="M12.54,126.79l.7,1.38-.7-1.38Z" class="cls-29"/><path d="M122.25,65.77c-1.36,1.33-2.72,2.67-4.08,4-.31,.3-.63,.61-.94,.91,0,0-.08,.08-.08,.08-.3,.3-.6,.59-.89,.89-.33,.12-.67,.25-1,.37,.09-.65,.09-1.33,.27-1.96,1.22-4.31,.66-5.19-3.77-5.22-5.59-.04-10.77,.88-13.35,6.81-.04-.62-.08-1.24-.12-1.86l-.84-1.01c-4.35-8.04-.95-15.08,2.83-22.07,.33-.31,.65-.62,.98-.93h-.02c2.68-2,5.36-3.99,8.04-5.99l.17-.16s-.16,.17-.16,.17c-3.31,1.69-6.61,3.38-9.92,5.06,0,0-.05,0-.05,0-.35,.3-.69,.61-1.04,.91-9.37,6.5-19.82,10.45-30.82,13.11-2.04,.3-4.08,.61-6.12,.91-.34-.01-.67-.03-1.01-.04-.34-.66-.67-1.32-1.01-1.98,.23-1.42,.92-2.96,.59-4.23-1.02-3.88,.08-7.14,2.09-10.34,.79-1.25,1.57-2.59,1.94-4,1.26-4.77,4.46-6.93,9.1-7.95,2.19-.48,4.12-2.17,6.17-3.31,5.02,.95,10.09,1.69,15.04,2.89,10.09,2.44,20.12,5.14,30.18,7.73,7.06-.2,8.88,5.71,11.9,10.22-1.7,1.99-3.4,3.99-5.1,5.98-2.81,.23-5.24,1.49-4.63,4.5,.82,4.04-1.5,5.27-4.34,6.49Z" class="cls-28"/><path d="M114.27,160.71c1.3,3.19,1.52,6.26-1.03,9.02,0-1.66,0-3.32-.01-4.98-.32-.67-.64-1.35-.97-2.02,.02-3.35,.03-6.7,.05-10.05,.64-1.25,1.48-2.44,1.89-3.76,1.38-4.49,1.1-8.91-.91-13.19,1.67,2.14,3.69,2.01,5.65,.63,3.48-2.45,6.85-5.05,10.26-7.58,2.84,.92,5.64,1.98,8.54,2.66,.67,.16,1.65-.99,2.48-1.54-1.29-1.71-2.43-3.57-3.95-5.04-.55-.52-2.02-.08-3.07-.08-.69-.67-1.38-1.34-2.07-2.01,.03-.28,.05-.56,.08-.84,.03-.4,.05-.8,.08-1.2,2.04,1.73,3.63,1.87,4.97-.94,2.27-4.78,4.74-9.47,4-15.03,2.12-1.2,4.21-2.45,6.37-3.58,4.17-2.18,8.37-4.28,12.56-6.41,.6,10.72-1.07,20.89-7.81,29.6-2.62,3.39-5.43,6.85-8.83,9.37-7.95,5.88-14.61,13.61-24.07,17.38-4.62,1.84-4.31,5.74-4.21,9.6Z" class="cls-40"/><path d="M159.19,94.76c-4.19,2.13-8.39,4.24-12.56,6.41-2.16,1.13-4.25,2.38-6.37,3.58-1.42-.27-2.96-1.03-4.23-.71-2.68,.68-5.21,1.97-7.83,2.93-5.05,1.85-5.16,2.16-1.94,6.79-.41,.03-.83,.06-1.24,.09-3.05-2.25-5.91-5.09-10.28-3.35-.27,.11-.73,.06-.97-.11-1.61-1.18-3.18-2.4-4.76-3.61,1.9-.62,4.24-2.28,5.63-1.7,8.47,3.57,15.56-.44,22.87-3.49,8.28-3.46,16.56-6.93,24.82-10.44,.65-.28,1.14-.94,1.71-1.43-.64-.03-1.28-.1-1.92-.08-11.29,.38-22.59,.67-33.88,1.2-5.44,.26-10.95,.35-14.67,5.72-1.01,1.45-3.7,1.77-5.67,2.47-.17,.06-1.13-1.19-1.01-1.38,1.19-1.88,2.24-4.84,3.89-5.24,5.48-1.35,6.7-5.31,7.76-9.85,.94-4.04,2.25-7.99,3.24-12.02,.38-1.53,.32-3.17,.46-4.76,2.84-1.22,5.15-2.46,4.34-6.49-.61-3.01,1.82-4.28,4.63-4.5,1.46,4.94,5.28,9.31,3.49,15.07-.22,.72,.58,1.85,1.07,2.69,1.83,3.14,3.59,6.33,5.63,9.33,1.85,2.72,3.83,5.39,7.76,5.36,3.6-.02,7.21,.4,10.81,.36,2.42-.03,4.83-.51,7.25-.8,.64,.18,1.4,.19,1.89,.57,.84,.65,1.5,1.52,2.23,2.29-.84,.42-1.66,.89-2.52,1.24-3.2,1.31-6.42,2.58-9.63,3.86Zm-39.16-10.21c-.32,3.75,.73,4.94,3.78,4.76,2.48-.15,4.96-.41,7.44-.61,1.99-.16,2.87-1.05,1.61-2.9-1.87-2.74-3.64-5.6-5.88-8.01-3.26-3.51-4.62-3.07-5.8,1.45-.5,1.93-.85,3.9-1.15,5.31Z" class="cls-38"/><path d="M57.08,21.56c8.91-4.94,18.33-8.31,28.39-10.17,6.63-1.22,12.63-.35,17.94,3.58,5.85,4.33,11.38,9.09,17.05,13.66-5.63-.17-11.28-.06-16.88-.57-14.02-1.27-28.02-2.78-42.01-4.35-1.56-.18-3-1.41-4.5-2.16Z" class="cls-49"/><path d="M167.22,86.79c-2.42,.28-4.83,.77-7.25,.8-3.6,.04-7.21-.38-10.81-.36-3.93,.03-5.91-2.64-7.76-5.36-2.04-3-3.8-6.19-5.63-9.33-.49-.84-1.3-1.97-1.07-2.69,1.8-5.76-2.03-10.13-3.49-15.07,1.7-1.99,3.4-3.99,5.1-5.98,3.97,3.5,7.93,7.02,11.93,10.48,.87,.75,1.88,1.37,2.9,1.9,5.93,3.03,5.46,3.01,5.41,9.33-.04,4.72,1.2,9.49,2.2,14.16,.17,.81,1.93,1.57,3.07,1.81,1.74,.36,3.59,.24,5.39,.33Z" class="cls-32"/><path d="M124.41,38.57c-10.06-2.59-20.09-5.28-30.18-7.73-4.96-1.2-10.03-1.94-15.04-2.89-5.52-.41-11.05-.74-16.55-1.31-1.11-.11-2.13-1.1-3.2-1.69,3.48,.07,7-.17,10.43,.27,12.49,1.62,24.91,3.71,37.42,5.09,4.93,.54,10.01-.31,15.02-.53,2.2,2.57,5.03,4.98,2.1,8.78Z" class="cls-36"/><path d="M122.31,29.8c-5.01,.22-10.09,1.07-15.02,.53-12.51-1.38-24.94-3.48-37.42-5.09-3.43-.44-6.95-.2-10.43-.27-3.32,.34-6.64,.67-9.95,1.01,0,0-.2-.17-.2-.17,2.6-1.41,5.19-2.82,7.79-4.23,1.5,.74,2.94,1.98,4.5,2.16,13.99,1.58,27.99,3.08,42.01,4.35,5.6,.51,11.25,.4,16.88,.57,.62,.39,1.23,.78,1.85,1.16Z" class="cls-53"/><path d="M60.3,59.78c.34,.01,.67,.03,1.01,.04,.33,.33,.67,.67,1,1,1.12,.94,2.1,2.22,3.38,2.76,3.39,1.44,2.79,3.52,.8,5.34-2.41,2.2-5.05,4.27-7.89,5.84-3.43,1.89-5.18,7.74-2.72,10.75,.35,.42,1.3,.87,1.65,.69,3.38-1.75,4.74,.89,6.53,2.79,1.93,2.05,4.14,3.85,5.98,5.98,2.48,2.86,1.82,5.71-1.88,6.05-4.74,.43-8.39,2.83-12.41,4.69-4.7,2.18-5.8,1.5-6.45-3.54-.08-.66,0-1.37-.22-1.97-.28-.72-.81-1.34-1.23-2.01-.45,.63-1.01,1.2-1.34,1.89-1.11,2.35-1.69,5.1-3.3,7.02-2.54,3.04-4.6,2.5-6.07-1.2-.94-2.35-1.91-3.88-4.96-3.8-3.99,.1-4.43-3.3-4.8-6.32-.16-1.31-.06-2.66-.08-3.99,.67-.34,1.34-.68,2-1.02,4.45-3.16,8.46-6.69,13.73-8.99,3.9-1.7,6.26-6.91,9.37-10.51,1.46-1.69,1.68-3.18,.74-5.39-1.06-2.49-1.28-5.35-1.86-8.05,1,0,2,.01,3.01,.02,2,.64,4,1.28,6.01,1.92Z" class="cls-23"/><path d="M54.3,57.85c-1,0-2-.01-3.01-.02-3.96-2.04-7.93-4.08-11.89-6.13-1.07-1.64-2.13-3.28-3.2-4.92-1.31-5.68,.19-10.44,4.74-14.14,2.81-2.28,5.69-4.46,8.54-6.69,3.32-.34,6.64-.67,9.95-1.01,1.06,.59,2.08,1.58,3.2,1.69,5.51,.56,11.03,.89,16.55,1.31-2.05,1.14-3.98,2.82-6.17,3.31-4.64,1.03-7.84,3.19-9.1,7.95-.37,1.41-1.16,2.75-1.94,4-2.01,3.2-3.11,6.46-2.09,10.34,.34,1.27-.36,2.82-.59,4.23-1.67,.02-3.33,.04-5,.06Z" class="cls-44"/><path d="M39.4,51.71c3.96,2.04,7.93,4.08,11.89,6.13,.58,2.7,.8,5.56,1.86,8.05,.94,2.21,.72,3.7-.74,5.39-3.11,3.59-5.46,8.8-9.37,10.51-5.27,2.3-9.28,5.83-13.73,8.99,.84-2.42-.36-3.99-2.49-4.5-3.1-.75-2.81-2.62-2.14-4.85,.56-1.87,1.1-3.75,1.65-5.63,4.36-8.03,8.71-16.06,13.07-24.08Z" class="cls-37"/><path d="M39.4,51.71c-4.36,8.03-8.71,16.06-13.07,24.08-1.23,1.35-2.3,2.93-3.76,3.96-1.08,.76-2.99,1.46-3.94,.99-1.05-.51-1.79-2.34-1.99-3.69-.21-1.41,.39-2.93,.63-4.4,3.42-10.36,8.36-19.86,15.76-27.98,1.05,.71,2.11,1.42,3.16,2.13,1.07,1.64,2.13,3.28,3.2,4.92Z" class="cls-11"/><path d="M33.04,44.66c-7.4,8.12-12.34,17.62-15.76,27.98-.04-1.57-.65-3.43-.02-4.65,4.32-8.39,8.85-16.68,13.45-24.92,.58-1.04,1.98-1.61,3-2.4-.22,1.33-.44,2.66-.67,4Z" class="cls-18"/><path d="M22.32,93.77c-.33,1-.66,2-1,3,.33-1,.66-2,1-3Z" class="cls-23"/><path d="M23.33,92.78l-1.01,.98,1.01-.98Z" class="cls-23"/><path d="M26.32,91.81c-.34,.32-.68,.63-1.03,.95,.34-.32,.68-.63,1.03-.95Z" class="cls-23"/><path d="M98.39,71.65c2.58-5.93,7.77-6.85,13.35-6.81,4.43,.03,4.99,.92,3.77,5.22-.18,.63-.18,1.3-.27,1.96-2.94,2.67-5.87,5.33-8.81,8-2.08,1.88-3.41,3.86-2.38,6.98,.84,2.52,.1,5-2.26,6.57-.47,.31-2.05-.06-2.07-.24-.27-2.19-1.03-4.65-.34-6.57,1.91-5.3,.36-10.14-1-15.1Z" class="cls-38"/><path d="M113.29,135.72c2.02,4.28,2.3,8.7,.91,13.19-.41,1.32-1.25,2.51-1.89,3.76-.36-7.61-.64-15.22-1.11-22.83-.24-3.87-1.17-7.35-4.76-9.89-1.49-1.05-1.98-3.6-2.72-5.55-.09-.24,1.36-1.48,1.56-1.35,1.79,1.06,4.54,2.03,4.96,3.58,1.75,6.47,6.75,7.39,12.09,8.46,4.05,.81,7.95,2.32,11.97,3.34,1.47,.37,2.56-.04,.93-1.68-.34-.33-.68-.67-1.01-1h0c-.34-.33-.67-.66-1.01-1h-.02c1.05,0,2.53-.43,3.07,.09,1.52,1.46,2.66,3.33,3.95,5.04-.83,.55-1.81,1.69-2.48,1.54-2.89-.68-5.7-1.74-8.54-2.66-4.65-1.15-9.3-2.31-13.96-3.43-2.07-.5-2.67,.47-2.47,2.44,.26,2.64,.35,5.29,.51,7.94Z" class="cls-33"/><path d="M78.24,101.67c-1.08-1.52-5.49,.2-3.87-3.96,2.04,.23,4.16,.93,6.1,.58,2.76-.5,4.94-.08,6.63,2.08,.32,.41,.15,1.77-.27,2.11-2.17,1.8-4.56,1.6-6.92,.28-.58-.32-1.11-.72-1.66-1.08Z" class="cls-19"/><path d="M99.34,44.87c3.31-1.69,6.61-3.38,9.92-5.06,0,0-.01-.01-.01-.01-2.68,1.99-5.36,3.98-8.04,5.97-.62-.3-1.24-.6-1.87-.9Z" class="cls-13"/><path d="M125.02,113.84c.41-.03,.83-.06,1.24-.09l5.03,6.97c-.03,.4-.05,.8-.08,1.2-.32-.07-.65-.11-.97-.13l-5.21-7.95Z" class="cls-20"/><path d="M62.31,60.82c-.33-.33-.67-.67-1-1,2.04-.3,4.08-.61,6.12-.91,.28,.29,.57,.58,.85,.87-1.99,.35-3.98,.7-5.97,1.05Z" class="cls-37"/><path d="M50.28,117.83c-3.68,.29-7.35,.58-11.03,.88,3.68-.29,7.35-.58,11.03-.88Z" class="cls-31"/><path d="M112.26,162.73c.32,.67,.64,1.35,.97,2.02l-.97-2.02Z" class="cls-12"/><path d="M75.27,116.87c-.68,.28-1.37,.56-2.05,.84,.68-.28,1.37-.56,2.05-.84Z" class="cls-31"/><path d="M74.34,97.76c-.35-.38-.69-.76-1.04-1.14,.35,.38,.69,.76,1.04,1.14Z" class="cls-19"/><path d="M79.3,120.79c.3-.35,.61-.69,.91-1.04-.3,.35-.61,.69-.91,1.04Z" class="cls-31"/><path d="M130.23,121.79c.33,.02,.65,.07,.97,.13-.02,.28-.05,.56-.08,.84-.3-.33-.6-.65-.9-.98Z" class="cls-3"/><path d="M71.3,102.66c.34-.29,.68-.59,1.02-.88-.34,.29-.68,.59-1.02,.88Z" class="cls-23"/><path d="M71.23,93.76c-.31-.34-.62-.68-.93-1.02,.31,.34,.62,.68,.93,1.02Z" class="cls-23"/><path d="M133.22,124.76l1.01,1-1.01-1Z" class="cls-40"/><path d="M134.22,125.76c.34,.33,.68,.67,1.01,1-.34-.33-.68-.67-1.01-1Z" class="cls-40"/><path d="M78.28,115.84c-.34,.3-.69,.61-1.03,.91,.34-.3,.69-.61,1.03-.91Z" class="cls-31"/><path d="M38.32,115.74c.38-.31,.75-.61,1.13-.92-.38,.31-.75,.61-1.13,.92Z" class="cls-23"/><path d="M116.25,71.65c.3-.3,.6-.59,.89-.89-.3,.3-.6,.59-.89,.89Z" class="cls-38"/><path d="M117.22,70.68c.31-.3,.63-.61,.94-.91-.31,.3-.63,.61-.94,.91Z" class="cls-38"/><path d="M97.42,68.79l.84,1.01-.84-1.01Z" class="cls-38"/><path d="M68.3,103.67c.34-.3,.68-.59,1.02-.89-.34,.3-.68,.59-1.02,.89Z" class="cls-23"/><path d="M41.32,114.68c.35-.3,.7-.6,1.05-.9-.35,.3-.7,.6-1.05,.9Z" class="cls-23"/><path d="M101.23,45.79c-.33,.31-.65,.62-.98,.93,.33-.31,.65-.62,.98-.93Z" class="cls-13"/><path d="M98.25,45.79c.35-.3,.69-.61,1.04-.91-.35,.3-.69,.61-1.04,.91Z" class="cls-13"/><path d="M62.31,105.65c.34-.29,.67-.59,1.01-.88-.34,.29-.67,.59-1.01,.88Z" class="cls-23"/><path d="M46.32,112.66c.35-.29,.69-.59,1.04-.88-.35,.29-.69,.59-1.04,.88Z" class="cls-23"/><path d="M48.31,111.7c.36-.3,.72-.6,1.08-.9-.36,.3-.72,.6-1.08,.9Z" class="cls-23"/><path d="M57.31,107.7c.36-.3,.71-.6,1.07-.9-.36,.3-.71,.6-1.07,.9Z" class="cls-23"/><path d="M55.31,108.69c.35-.3,.71-.6,1.06-.9-.35,.3-.71,.6-1.06,.9Z" class="cls-23"/><path d="M50.31,110.72l1.11-.91-1.11,.91Z" class="cls-23"/><path d="M53.31,109.69c.35-.3,.7-.6,1.06-.91-.35,.3-.7,.6-1.06,.91Z" class="cls-23"/><path d="M161.23,140.71c-.31-.74-.69-1.46-.93-2.22-.61-1.95-.09-2.85,2.07-2.11,2.28,.78,4.55,1.56,6.83,2.34,.23,.95,.86,2.03,.6,2.82-.43,1.31-1.2,3.03-2.27,3.45-.91,.36-2.51-.76-3.68-1.43-.67-.39-1.1-1.2-1.64-1.82h0c-.33-.34-.65-.69-.98-1.03Z" class="cls-4"/><path d="M169.17,138.75c-.09-.14-.17-.28-.27-.41-.93-1.23-1.87-2.45-2.8-3.68l5.06-.85c1.27,2.42,.98,4.21-1.98,4.93Z" class="cls-13"/><path d="M161.23,140.71l.98,1.03-.98-1.03Z" class="cls-34"/><path d="M54.3,57.85c1.67-.02,3.33-.04,5-.06l1.01,1.98c-2-.64-4-1.28-6.01-1.92Z" class="cls-30"/><polygon points="109.26 39.81 109.42 39.64 109.25 39.8 109.26 39.81" class="cls-13"/><path d="M131.29,120.72l-5.03-6.97c-3.22-4.63-3.12-4.94,1.94-6.79,2.62-.96,5.14-2.25,7.83-2.93,1.27-.32,2.81,.44,4.23,.71,.74,5.56-1.73,10.25-4,15.03-1.33,2.81-2.93,2.67-4.97,.94Z" class="cls-3"/><path d="M113.29,135.72c-.16-2.65-.25-5.3-.51-7.94-.2-1.97,.4-2.94,2.47-2.44,4.66,1.12,9.31,2.28,13.96,3.43-3.41,2.54-6.78,5.14-10.26,7.58-1.96,1.38-3.98,1.51-5.65-.63Z" class="cls-9"/><path d="M120.02,84.55c.3-1.41,.64-3.38,1.15-5.31,1.18-4.52,2.54-4.96,5.8-1.45,2.24,2.41,4.01,5.27,5.88,8.01,1.26,1.85,.38,2.73-1.61,2.9-2.48,.21-4.95,.46-7.44,.61-3.05,.18-4.1-1.01-3.78-4.76Z" class="cls-39"/><path d="M31.31,119.77c-.47-.11-.93-.22-1.4-.33,.18-.46,.25-1.21,.56-1.33,2.25-.87,4.54-1.62,6.82-2.4,.34,0,.69,.02,1.03,.03,.38-.31,.75-.61,1.13-.92,.63-.05,1.25-.09,1.88-.14,.35-.3,.7-.6,1.05-.9,1.32-.37,2.63-.75,3.95-1.12,.35-.29,.69-.59,1.04-.88,.32-.01,.64-.04,.96-.08,.36-.3,.72-.6,1.08-.9,.31,0,.61-.03,.91-.07l1.11-.91c.63-.04,1.26-.08,1.9-.12,.35-.3,.7-.6,1.06-.91,.32-.02,.63-.06,.94-.1,.35-.3,.71-.6,1.06-.9,.31-.02,.63-.05,.94-.09,.36-.3,.71-.6,1.07-.9,1.31-.38,2.63-.76,3.94-1.14,.34-.29,.67-.59,1.01-.88,1.66-.37,3.32-.74,4.98-1.1,.34-.3,.68-.59,1.02-.89,.66-.04,1.32-.08,1.98-.11,.34-.29,.68-.59,1.02-.88,1.97-.04,3.94-.07,5.91-.11,.55,.36,1.09,.76,1.66,1.08,2.36,1.32,4.75,1.52,6.92-.28,.42-.35,.59-1.7,.27-2.11-1.69-2.16-3.87-2.58-6.63-2.08-1.93,.35-4.06-.35-6.1-.58l-.03,.05c-.35-.38-.69-.76-1.04-1.14-.69-.95-1.38-1.9-2.07-2.85-.31-.34-.62-.68-.93-1.02-2.89-3.42-5.79-6.82-8.64-10.27-.48-.58-.68-1.37-1.02-2.07,.79-.05,1.63-.3,2.36-.11,4.18,1.09,8.29,2.44,12.5,3.4,4.64,1.06,8.97,1.95,10.51,7.65,.46,1.69,3.4,2.73,5.28,3.95,.17,.11,1.35-.83,1.29-.99-.81-2.08-1.64-4.18-2.69-6.15-1.44-2.69-3.72-5.09-4.5-7.93-2.17-7.86-1.18-15.47,3.33-22.48,.53-.83,.41-2.07,.6-3.12-.91,.26-1.82,.55-2.74,.77-6.1,1.46-12.2,2.91-18.3,4.37-.28-.29-.57-.58-.85-.87,11-2.67,21.45-6.61,30.82-13.11,.35-.3,.69-.61,1.04-.91h.05c.62,.29,1.24,.59,1.87,.89h.02c-.33,.32-.65,.63-.98,.95-3.78,6.99-7.18,14.03-2.83,22.07l.84,1.01c.04,.62,.08,1.24,.12,1.86,1.36,4.96,2.9,9.8,1,15.1-.69,1.92,.07,4.38,.34,6.57,.02,.18,1.61,.55,2.07,.24,2.36-1.57,3.1-4.04,2.26-6.57-1.04-3.12,.3-5.09,2.38-6.98,2.94-2.66,5.87-5.33,8.81-8,.33-.12,.67-.25,1-.37,.3-.3,.6-.59,.89-.89,0,0,.08-.08,.08-.08,.31-.3,.63-.61,.94-.91,1.36-1.33,2.72-2.67,4.08-4-.14,1.59-.08,3.23-.46,4.76-.99,4.03-2.31,7.98-3.24,12.02-1.05,4.54-2.28,8.5-7.76,9.85-1.64,.4-2.7,3.37-3.89,5.24-.12,.19,.84,1.44,1.01,1.38,1.97-.7,4.66-1.02,5.67-2.47,3.72-5.37,9.23-5.46,14.67-5.72,11.29-.53,22.59-.82,33.88-1.2,.64-.02,1.28,.05,1.92,.08-.57,.49-1.06,1.15-1.71,1.43-8.26,3.51-16.54,6.98-24.82,10.44-7.31,3.05-14.4,7.06-22.87,3.49-1.39-.59-3.73,1.07-5.63,1.7,1.58,1.21,3.15,2.44,4.76,3.61,.23,.17,.7,.22,.97,.11,4.37-1.74,7.22,1.1,10.28,3.35l5.21,7.95c.3,.33,.6,.65,.9,.98,.69,.67,1.38,1.34,2.07,2.01h.02c.34,.32,.67,.66,1.01,.99h0c.34,.33,.68,.66,1.01,1,1.64,1.64,.54,2.05-.93,1.68-4.01-1.02-7.92-2.53-11.97-3.34-5.35-1.07-10.34-1.99-12.09-8.46-.42-1.55-3.18-2.52-4.96-3.58-.2-.12-1.66,1.12-1.56,1.35,.75,1.95,1.23,4.5,2.72,5.55,3.59,2.54,4.53,6.02,4.76,9.89,.47,7.6,.75,15.22,1.11,22.83-.02,3.35-.03,6.7-.05,10.05l.97,2.02c0,1.66,0,3.32,.01,4.98-.98-1-1.96-2-2.93-3.01-3.68-8.66-7.36-17.33-11.04-25.99-2.18-6.8-4.72-13.48-1.56-20.81,.55-1.27-1.04-3.46-1.64-5.22-1.36,1.27-2.88,2.41-4,3.85-.48,.62-.52,2.09-.12,2.81,2.51,4.44-.58,6.87-3.3,9.26-4.34,3.83-8.88,7.44-13.33,11.14-.39-.55-1.21-1.21-1.1-1.63,1.59-6.17,3.31-12.31,5-18.46,.03-.3,.06-.6,.07-.9,.3-.35,.61-.69,.91-1.04,2.04-1.24,4.27-2.25,6.05-3.79,1.4-1.21,2.28-3.05,3.26-4.69,.1-.16-.84-1.31-1.1-1.24-1.82,.5-3.72,.94-5.32,1.88-1.76,1.04-3.23,2.59-4.82,3.92l-1.03,.91c-.66,.04-1.32,.08-1.98,.12-.68,.28-1.37,.56-2.05,.84-.31,0-.63,.04-.94,.1-7.34,0-14.67,.02-22.01,.02-3.68,.29-7.35,.58-11.03,.88-2.65,.35-5.29,.71-7.94,1.06Z" class="cls-10"/></svg>